<?xml version="1.0" encoding="utf-8"?>
<!-- Generator: Adobe Illustrator 23.0.2, SVG Export Plug-In . SVG Version: 6.00 Build 0)  -->
<svg version="1.1" id="Layer_1" xmlns="http://www.w3.org/2000/svg" xmlns:xlink="http://www.w3.org/1999/xlink" x="0px" y="0px"
	 viewBox="0 0 170 53" style="enable-background:new 0 0 170 53;" xml:space="preserve">
<style type="text/css">
	.st0{fill:#344149;}
</style>
<title>Asset 1</title>
<g>
	<g id="Layer_1-2">
		<path class="st0" d="M28.3,29.7C28.3,29.7,28.3,29.7,28.3,29.7L28.3,29.7z M36.1,28.7L36.1,28.7l0.3-0.6l1.8-3.5
			c0-0.1,0.1-0.2,0.1-0.3c0-0.3-0.2-0.5-0.5-0.5h-7.6c-0.2,0-0.4-0.2-0.4-0.4c0,0,0-0.1,0-0.1v-0.1l1-4.2c0.1-0.3,0.3-0.5,0.6-0.5
			h7.4c0.9,0,1.7-0.4,2.2-1.1l0.3-0.5l1.5-3c0-0.1,0.1-0.1,0-0.2c0-0.3-0.3-0.5-0.5-0.5H27.1c-0.6,0-1.1,0.4-1.3,1l-5.6,24.4
			l-0.1,0.5c0,0.3,0.1,0.5,0.4,0.5c0,0,0.1,0,0.1,0h4.8c0.3,0,0.6-0.2,0.7-0.5V39l2.1-9.4c0.1-0.3,0.3-0.4,0.6-0.4H35
			C35.4,29.2,35.8,29,36.1,28.7L36.1,28.7L36.1,28.7z M53.3,28.7L53.3,28.7L53.3,28.7z M61.5,37.4l2.8-12.2c0-0.1,0-0.2,0-0.3
			c0-0.6-0.4-1-1-1.1H53.1c-0.3,0-0.6,0.2-0.7,0.5c0,0.1,0,0.2,0,0.2l0.8,3.5l0.1,0.6c0.1,0.4,0.5,0.5,0.9,0.5h2.5
			c0.3,0,0.5,0.2,0.5,0.5c0,0,0,0,0,0.1l0,0l-0.9,3.7c-0.1,0.4-0.4,0.7-0.8,0.8c-0.9,0.4-2,0.6-3,0.6c-0.9,0-1.9-0.2-2.7-0.6
			c-2.4-1.2-2.9-4.7-2.2-7.7c1.2-5.3,3.2-7.9,7.9-7.9h7.3c0.9,0,1.7-0.4,2.2-1.1l0.3-0.5l1.5-3c0-0.1,0-0.1,0-0.2
			c0-0.3-0.3-0.5-0.5-0.5h-9.6c-10.1,0-13.6,5.9-15.2,13.2c-1.2,5.2,1,10,4.7,12c2.1,1,4.4,1.5,6.8,1.4c2.6,0,5.1-0.5,7.5-1.5
			C60.9,38.3,61.3,37.9,61.5,37.4 M109.1,13.2l-0.1-0.1c0,0-0.1-0.1-0.2-0.1c-0.2,0-0.3,0.1-0.4,0.3c0,0.1,0,0.2,0.1,0.3l0.1,0.1
			c3.8,3.7,5.5,8.1,4.5,12.7c-3.1,13.8-29.1,25-58.3,25.2h-0.4c-0.2,0-0.5,0.2-0.5,0.4c0,0.2,0,0.3,0.2,0.4c0,0,0.1,0,0.1,0h0.5
			c1.7,0.1,3.3,0.1,5,0.1c31.7,0,57.4-11.7,57.4-26.1C117.1,21.6,114.2,17.1,109.1,13.2 M64.5,1.4H65c0.2,0,0.4-0.2,0.5-0.4
			c0-0.2-0.1-0.4-0.2-0.4c0,0-0.1,0-0.1,0h-0.5c-1.7-0.1-3.3-0.1-5-0.1C28,0.4,2.3,12.1,2.3,26.5c0,4.8,2.9,9.4,8,13.3l0.1,0.1
			c0,0,0.1,0.1,0.2,0.1c0.2,0,0.3-0.1,0.4-0.3c0-0.1,0-0.2-0.1-0.2l-0.1-0.1c-3.8-3.8-5.5-8.1-4.5-12.8C9.3,12.8,35.3,1.6,64.5,1.4
			 M65.8,39.8h4.8c0.3,0,0.6-0.2,0.7-0.5l4.3-19.1c0-0.1,0-0.1,0.1-0.1s0.1,0,0.1,0.1L76.8,34c0,0.3,0.2,0.5,0.5,0.5h5.4
			c0.5,0,1.1-0.2,1.5-0.5c0.4-0.3,0.7-0.6,0.9-1.1l0.3-0.5l6.1-11.7l0.3-0.5l0,0c0-0.1,0.1-0.1,0.1-0.1c0.1,0,0.1,0.1,0.1,0.1
			c0,0,0,0,0,0l-0.1,0.5l-4.1,18.1l-0.1,0.4c0,0.3,0.1,0.5,0.4,0.5c0,0,0.1,0,0.1,0h4.8c0.3,0,0.6-0.2,0.7-0.5l0.1-0.5l5.5-24.3
			l0.1-0.5c0-0.3-0.1-0.5-0.4-0.5c0,0-0.1,0-0.1,0h-8.1c-0.5,0-1,0.2-1.5,0.5c-0.4,0.3-0.7,0.6-0.9,1.1l-0.2,0.4l-5.6,10.7
			c0,0-0.1,0.1-0.1,0.1c-0.1,0-0.2-0.1-0.2-0.1L81.7,16v-0.6c0-0.5-0.2-1-0.6-1.4c-0.5-0.5-1.3-0.8-2-0.7h-7.3
			c-0.3,0-0.6,0.2-0.6,0.5L71,14.4l-5.7,24.9c0,0.3,0.1,0.5,0.4,0.5C65.7,39.8,65.7,39.8,65.8,39.8"/>
		<path class="st0" d="M133,21.5c0.1,0,0.2,0.1,0.1,0.2l-3.1,8.1c0,0.1-0.2,0.2-0.3,0.2h-0.4c-0.1,0-0.3-0.1-0.3-0.2l-3.1-8.1
			c-0.1-0.1,0-0.2,0.2-0.2h0.3c0.2,0,0.4,0.1,0.4,0.2l2.3,6.3c0,0.1,0.1,0.3,0.2,0.6s0.1,0.4,0.1,0.4l0,0c0,0,0.1-0.2,0.1-0.4
			l0.2-0.6l2.4-6.3c0-0.1,0.2-0.2,0.4-0.2L133,21.5z"/>
		<path class="st0" d="M137.3,27.3c-0.7-0.1-1.3-0.1-1.6-0.1c-1.3,0-1.7,0.4-1.7,1.2s0.4,1.2,1.7,1.2c0.5,0,1,0,1.4-0.2
			c0.2-0.1,0.2-0.1,0.2-0.4V27.3z M135.7,23.7c1.1-0.2,2.2,0.6,2.4,1.7c0,0.2,0,0.4,0,0.7v3.2c0,0.4-0.1,0.5-0.4,0.7
			c-0.6,0.2-1.3,0.3-2,0.3c-0.7,0.1-1.4-0.1-2-0.5c-0.4-0.4-0.6-0.9-0.5-1.4c0-1.4,0.7-1.9,2.6-1.9c0.5,0,1,0,1.6,0.1v-0.6
			c0-1-0.4-1.6-1.6-1.6c-0.7-0.1-1.3,0.3-1.7,0.9c-0.1,0.1-0.2,0.2-0.3,0.1c0,0,0,0,0,0l-0.3-0.1c-0.2-0.1-0.2-0.2-0.1-0.3
			C133.8,24.1,134.7,23.6,135.7,23.7"/>
		<path class="st0" d="M140.1,23.9c0.1,0,0.2,0.1,0.2,0.2c0,0,0,0,0,0v5.8c0,0.1-0.1,0.2-0.2,0.2c0,0,0,0-0.1,0h-0.4
			c-0.1,0-0.2-0.1-0.2-0.2c0,0,0,0,0,0v-5.8c0-0.1,0.1-0.2,0.2-0.2H140.1z M139.9,21.6c0.3,0,0.4,0.1,0.4,0.4v0.1
			c0,0.3-0.1,0.5-0.4,0.5h-0.1c-0.3,0-0.4-0.1-0.4-0.5v-0.1C139.4,21.8,139.5,21.6,139.9,21.6L139.9,21.6z"/>
		<path class="st0" d="M148.5,27.3c-0.7-0.1-1.3-0.1-1.6-0.1c-1.3,0-1.7,0.4-1.7,1.2s0.4,1.2,1.7,1.2c0.5,0,1,0,1.4-0.2
			c0.2-0.1,0.2-0.1,0.2-0.4V27.3z M146.9,23.7c1.1-0.2,2.2,0.6,2.4,1.8c0,0.2,0,0.4,0,0.6v3.2c0,0.4-0.1,0.5-0.4,0.7
			c-0.6,0.2-1.3,0.3-2,0.3c-0.7,0.1-1.4-0.1-2-0.5c-0.4-0.4-0.6-0.9-0.6-1.4c0-1.4,0.7-1.9,2.6-1.9c0.5,0,1,0,1.6,0.1v-0.6
			c0-1-0.4-1.6-1.6-1.6c-0.7-0.1-1.3,0.3-1.7,0.9c-0.1,0.1-0.2,0.2-0.3,0.1l-0.3-0.1c-0.1-0.1-0.2-0.2-0.1-0.3
			C145,24.1,145.9,23.6,146.9,23.7"/>
		<path class="st0" d="M151.6,29.8c0,0.1,0,0.2-0.2,0.2H151c-0.2,0-0.2-0.1-0.2-0.2v-8.5c0-0.2,0.1-0.2,0.2-0.2h0.4
			c0.2,0,0.2,0.1,0.2,0.2V29.8z"/>
		<path class="st0" d="M156.3,21.4c0.2-0.1,0.3-0.1,0.4,0l0.2,0.2c0.1,0.1,0.1,0.2,0,0.3l-2.1,1.1c-0.1,0.1-0.2,0-0.3,0l-0.1-0.1
			c-0.1-0.1-0.1-0.2,0-0.2L156.3,21.4z M157.4,26.1c-0.1-1-1-1.8-2-1.7c-0.9,0.1-1.6,0.8-1.7,1.7v0.4h3.7V26.1z M153,26.2
			c0.1-1.5,1.3-2.6,2.8-2.5c1.3,0.1,2.4,1.1,2.5,2.5v0.7c0,0.2-0.1,0.3-0.4,0.3h-4.1v0.7c-0.1,0.9,0.6,1.6,1.5,1.7
			c0.1,0,0.2,0,0.3,0c0.8,0.1,1.5-0.3,1.9-1c0.1-0.1,0.2-0.2,0.3-0.1c0,0,0,0,0,0l0.3,0.1c0.1,0.1,0.2,0.2,0.1,0.4
			c-0.5,0.9-1.5,1.4-2.5,1.3c-1.2,0.2-2.4-0.7-2.6-1.9c0-0.2,0-0.3,0-0.5V26.2z"/>
		<path class="st0" d="M165.5,23.7c1.4,0,2.2,0.8,2.2,2.3v3.9c0,0.1,0,0.2-0.2,0.2h-0.4c-0.1,0-0.2-0.1-0.2-0.2V26
			c0-1-0.5-1.6-1.5-1.6c-0.6,0-1.1,0.1-1.6,0.4c0.2,0.4,0.2,0.7,0.2,1.1v3.9c0,0.1,0,0.2-0.2,0.2h-0.4c-0.1,0-0.2-0.1-0.2-0.2V26
			c0-1-0.5-1.6-1.5-1.6c-0.4,0-0.9,0.1-1.3,0.3c-0.1,0.1-0.2,0.2-0.2,0.3v4.9c0,0.1-0.1,0.2-0.2,0.2c0,0,0,0,0,0h-0.4
			c-0.1,0-0.2-0.1-0.2-0.2c0,0,0,0,0-0.1v-5.1c0-0.3,0.2-0.6,0.5-0.7c0.6-0.3,1.2-0.4,1.9-0.4c0.6,0,1.1,0.1,1.5,0.5
			C164.1,23.9,164.8,23.7,165.5,23.7"/>
	</g>
</g>
</svg>
